<svg xmlns="http://www.w3.org/2000/svg" width="1024" height="1024" viewBox="0 0 1024 1024">
  <defs>
    <linearGradient id="bg" x1="0" y1="0" x2="1" y2="1">
      <stop offset="0" stop-color="#17213b"/>
      <stop offset="1" stop-color="#090f1e"/>
    </linearGradient>
    <filter id="shadow" x="-20%" y="-20%" width="140%" height="140%">
      <feDropShadow dx="0" dy="36" stdDeviation="34" flood-color="#050914" flood-opacity=".35"/>
    </filter>
  </defs>
  <rect x="52" y="52" width="920" height="920" rx="224" fill="url(#bg)" filter="url(#shadow)"/>
  <path d="M248 671 356 393c18-46 83-43 96 5l73 268c14 51-48 87-85 49L344 616l-30 91c-17 52-87 16-66-36Z" fill="#8ee8c5"/>
  <path d="m460 688 92-360c13-51 82-57 104-9l123 268c23 50-35 98-78 63l-89-72-42 139c-16 53-124 25-110-29Z" fill="#9a9cf4"/>
  <path d="m681 701 71-196c18-49 86-45 98 6l38 158c13 55-56 89-91 44l-39-50-16 64c-13 54-80 26-61-26Z" fill="#ff8c79"/>
  <circle cx="769" cy="302" r="52" fill="#8ee8c5"/>
</svg>
